<svg width="139" height="242" viewBox="0 0 139 242" fill="none" xmlns="http://www.w3.org/2000/svg">
<path d="M17.4729 29.6496C18.4367 28.9004 18.6506 28.4719 19.0791 28.258C50.4715 20.4646 80.4815 23.9223 108.04 41.4166C115.01 45.817 120.696 51.9309 124.989 59.2223C134.327 74.7703 132.523 93.7371 120.534 107.229C114.325 114.296 107.15 119.969 97.7211 122.103C94.1821 119.421 90.7501 116.631 87.2115 114.377C81.421 110.728 75.0969 109.329 68.3473 111.359C63.3118 112.747 60.0998 115.959 60.1031 119.388C60.1073 123.889 63.1109 126.893 66.9699 127.968C72.3296 129.474 77.9031 130.336 83.3691 130.877C86.9059 131.202 90.6562 130.67 94.1924 130.352C104.494 144.293 98.1866 160.898 79.4406 169.561C77.2961 168.273 75.0442 166.877 72.7926 165.697C64.3225 161.509 55.534 160.643 46.8574 164.815C43.5368 166.419 40.5383 168.774 40.6497 173.168C40.76 176.49 43.7635 179.494 48.4801 180.784C55.9836 182.72 63.4844 181.87 70.8774 180.269C73.4488 179.629 76.0202 178.988 78.4843 178.24C95.115 199.154 91.607 229.264 67.6102 238.243C69.1117 239.531 70.1846 240.818 71.2565 241.033C72.5427 241.249 74.1494 240.5 75.3276 239.751C86.1444 232.367 93.5299 222.836 93.8385 209.226C94.1503 199.046 91.6765 189.505 87.1668 180.285C86.5225 178.998 85.8783 177.712 85.3412 176.318C85.2339 176.211 85.3407 175.889 85.4472 175.139C86.5181 174.283 87.6958 173.105 89.088 172.142C105.687 160.048 109.32 148.692 102.55 128.645C104.264 127.789 106.192 126.719 108.12 125.864C119.153 120.409 127.611 112.379 133.174 101.239C142.266 83.1368 139.353 62.6652 125.513 46.8986C118.003 38.3182 108.888 31.9867 98.4887 27.3687C73.2941 16.3067 47.4644 13.603 20.7875 21.6153C19.3946 21.9355 18.0019 22.47 16.6091 22.7902C16.3947 22.79 16.0731 22.6825 15.1083 22.3601C17.8904 17.8617 21.6383 14.7574 25.2789 11.5459C28.7052 8.3341 32.4531 5.22983 36.3079 1.80414C33.1977 -0.663635 30.6261 -0.237407 28.1624 0.939092C25.3775 2.43679 22.378 3.71995 20.1294 5.75398C14.1334 11.321 8.13753 17.1023 2.57075 23.3127C-1.71125 28.2383 -0.528863 31.9902 5.25977 33.7104C17.5873 37.2586 30.0219 40.6997 42.4565 44.1408C44.4931 44.6786 46.5294 44.7876 49.2089 45.1117C48.8832 40.7175 46.3104 39.8578 43.9519 38.9982C35.1616 36.2036 26.6925 33.0877 17.4729 29.6496ZM47.0797 173.174C55.4326 166.752 64.7562 166.868 71.728 173.197C63.585 174.904 55.9779 176.719 47.0797 173.174ZM66.6412 120.359C74.4598 115.544 81.7483 116.837 87.6493 124.023C80.1482 124.659 73.397 124.974 66.6412 120.359Z" fill="#0D0D0D"/>
</svg>
