<svg xmlns="http://www.w3.org/2000/svg" viewBox="0 0 64 64">
  <defs>
    <linearGradient id="grad1" x1="0%" y1="0%" x2="100%" y2="100%">
      <stop offset="0%" style="stop-color:#667eea;stop-opacity:1" />
      <stop offset="100%" style="stop-color:#764ba2;stop-opacity:1" />
    </linearGradient>
  </defs>
  <rect width="64" height="64" rx="12" fill="url(#grad1)" />
  <path d="M16 20h8v4h-8v8h4v4h-4v8h8v4H16a4 4 0 01-4-4V24a4 4 0 014-4z" fill="white"/>
  <path d="M48 20a4 4 0 014 4v20a4 4 0 01-4 4h-8v-4h8v-8h-4v-4h4v-8h-8v-4h8z" fill="white"/>
  <circle cx="28" cy="28" r="2" fill="white"/>
  <circle cx="36" cy="36" r="2" fill="white"/>
  <circle cx="28" cy="36" r="1.5" fill="white" opacity="0.8"/>
  <circle cx="36" cy="28" r="1.5" fill="white" opacity="0.8"/>
</svg>

