<svg width="52" height="30" viewBox="0 0 52 30" fill="none" xmlns="http://www.w3.org/2000/svg">
<path d="M51.2457 22.0913C50.581 22.439 49.8533 22.6583 49.2201 23.0701C43.73 26.7971 37.5515 27.4188 31.1954 26.7059C29.0069 26.4612 26.713 25.5963 24.7931 24.4399C19.2723 21.214 14.731 16.904 11.3951 11.4839C10.4306 9.92376 9.75872 8.14917 9.34603 6.25436C9.80886 6.63014 10.3198 7.02297 10.766 7.44585C12.073 8.65035 13.3634 9.90195 14.7519 11.0293C15.3425 11.5033 16.1608 11.793 16.9477 12.0185C17.2365 12.1207 17.8198 11.8502 17.9679 11.5847C18.1161 11.3192 18.0106 10.6989 17.7866 10.5666C14.1283 7.89401 11.3995 4.27858 8.40969 0.941689C7.36001 -0.224722 6.475 -0.325997 5.44732 0.741047C2.93457 3.40215 1.12535 6.52422 0.00485541 9.99605C-0.0284808 10.0902 0.114064 10.2997 0.302879 10.6845C3.50967 10.6537 3.70996 7.33305 5.95602 5.42543C6.09296 6.1098 6.16697 6.66592 6.32244 7.14488C9.80418 16.591 16.4763 23.2979 25.3149 28.016C26.6275 28.7456 28.2013 29.1966 29.7287 29.4723C35.3405 30.4517 40.8247 29.9552 46.0073 27.7091C47.6755 26.9748 49.1402 25.7444 50.5715 24.6083C51.1566 24.1795 51.44 23.3789 51.8177 22.7707C51.6271 22.5443 51.4364 22.3178 51.2457 22.0913Z" fill="#303030"/>
</svg>
